<svg width="111" height="111" viewBox="0 0 111 111" fill="none" xmlns="http://www.w3.org/2000/svg">
<g clip-path="url(#clip0_172_579)">
<path d="M14.7955 1.28906L1.77993 1.28906C1.50883 1.28906 1.28906 1.50883 1.28906 1.77993L1.28906 14.7955C1.28906 15.0666 1.50883 15.2864 1.77993 15.2864H14.7955C15.0666 15.2864 15.2864 15.0666 15.2864 14.7955V1.77993C15.2864 1.50883 15.0666 1.28906 14.7955 1.28906Z" fill="#D34D5C"/>
<path d="M33.8268 1.28906L20.8112 1.28906C20.5401 1.28906 20.3203 1.50883 20.3203 1.77993V14.7955C20.3203 15.0666 20.5401 15.2864 20.8112 15.2864H33.8268C34.0979 15.2864 34.3177 15.0666 34.3177 14.7955V1.77993C34.3177 1.50883 34.0979 1.28906 33.8268 1.28906Z" fill="#D34D5C"/>
<path d="M52.858 1.28906L39.8424 1.28906C39.5713 1.28906 39.3516 1.50883 39.3516 1.77993V14.7955C39.3516 15.0666 39.5713 15.2864 39.8424 15.2864H52.858C53.1291 15.2864 53.3489 15.0666 53.3489 14.7955V1.77993C53.3489 1.50883 53.1291 1.28906 52.858 1.28906Z" fill="#D34D5C"/>
<path d="M71.8893 1.28906L58.8737 1.28906C58.6026 1.28906 58.3828 1.50883 58.3828 1.77993V14.7955C58.3828 15.0666 58.6026 15.2864 58.8737 15.2864H71.8893C72.1604 15.2864 72.3802 15.0666 72.3802 14.7955V1.77993C72.3802 1.50883 72.1604 1.28906 71.8893 1.28906Z" fill="#D34D5C"/>
<path d="M90.9245 1.28906L77.9088 1.28906C77.6377 1.28906 77.418 1.50883 77.418 1.77993V14.7955C77.418 15.0666 77.6377 15.2864 77.9088 15.2864H90.9245C91.1956 15.2864 91.4153 15.0666 91.4153 14.7955V1.77993C91.4153 1.50883 91.1956 1.28906 90.9245 1.28906Z" fill="#D34D5C"/>
<path d="M109.956 1.28906L96.9401 1.28906C96.669 1.28906 96.4492 1.50883 96.4492 1.77993V14.7955C96.4492 15.0666 96.669 15.2864 96.9401 15.2864H109.956C110.227 15.2864 110.447 15.0666 110.447 14.7955V1.77993C110.447 1.50883 110.227 1.28906 109.956 1.28906Z" fill="#D34D5C"/>
<path d="M109.956 20.3203H96.9401C96.669 20.3203 96.4492 20.5401 96.4492 20.8112V33.8268C96.4492 34.0979 96.669 34.3177 96.9401 34.3177H109.956C110.227 34.3177 110.447 34.0979 110.447 33.8268V20.8112C110.447 20.5401 110.227 20.3203 109.956 20.3203Z" fill="#D34D5C"/>
<path d="M90.9245 20.3203H77.9088C77.6377 20.3203 77.418 20.5401 77.418 20.8112V33.8268C77.418 34.0979 77.6377 34.3177 77.9088 34.3177H90.9245C91.1956 34.3177 91.4153 34.0979 91.4153 33.8268V20.8112C91.4153 20.5401 91.1956 20.3203 90.9245 20.3203Z" fill="#D34D5C"/>
<path d="M71.8893 20.3203H58.8737C58.6026 20.3203 58.3828 20.5401 58.3828 20.8112V33.8268C58.3828 34.0979 58.6026 34.3177 58.8737 34.3177H71.8893C72.1604 34.3177 72.3802 34.0979 72.3802 33.8268V20.8112C72.3802 20.5401 72.1604 20.3203 71.8893 20.3203Z" fill="#D34D5C"/>
<path d="M52.858 20.3203H39.8424C39.5713 20.3203 39.3516 20.5401 39.3516 20.8112V33.8268C39.3516 34.0979 39.5713 34.3177 39.8424 34.3177H52.858C53.1291 34.3177 53.3489 34.0979 53.3489 33.8268V20.8112C53.3489 20.5401 53.1291 20.3203 52.858 20.3203Z" fill="#D34D5C"/>
<path d="M33.8268 20.3203H20.8112C20.5401 20.3203 20.3203 20.5401 20.3203 20.8112V33.8268C20.3203 34.0979 20.5401 34.3177 20.8112 34.3177H33.8268C34.0979 34.3177 34.3177 34.0979 34.3177 33.8268V20.8112C34.3177 20.5401 34.0979 20.3203 33.8268 20.3203Z" fill="#D34D5C"/>
<path d="M14.7955 20.3203H1.77993C1.50883 20.3203 1.28906 20.5401 1.28906 20.8112L1.28906 33.8268C1.28906 34.0979 1.50883 34.3177 1.77993 34.3177H14.7955C15.0666 34.3177 15.2864 34.0979 15.2864 33.8268V20.8112C15.2864 20.5401 15.0666 20.3203 14.7955 20.3203Z" fill="#D34D5C"/>
<path d="M14.7955 39.3516H1.77993C1.50883 39.3516 1.28906 39.5713 1.28906 39.8424L1.28906 52.858C1.28906 53.1291 1.50883 53.3489 1.77993 53.3489H14.7955C15.0666 53.3489 15.2864 53.1291 15.2864 52.858V39.8424C15.2864 39.5713 15.0666 39.3516 14.7955 39.3516Z" fill="#D34D5C"/>
<path d="M33.8268 39.3516H20.8112C20.5401 39.3516 20.3203 39.5713 20.3203 39.8424V52.858C20.3203 53.1291 20.5401 53.3489 20.8112 53.3489H33.8268C34.0979 53.3489 34.3177 53.1291 34.3177 52.858V39.8424C34.3177 39.5713 34.0979 39.3516 33.8268 39.3516Z" fill="#D34D5C"/>
<path d="M52.858 39.3516H39.8424C39.5713 39.3516 39.3516 39.5713 39.3516 39.8424V52.858C39.3516 53.1291 39.5713 53.3489 39.8424 53.3489H52.858C53.1291 53.3489 53.3489 53.1291 53.3489 52.858V39.8424C53.3489 39.5713 53.1291 39.3516 52.858 39.3516Z" fill="#D34D5C"/>
<path d="M71.8893 39.3516H58.8737C58.6026 39.3516 58.3828 39.5713 58.3828 39.8424V52.858C58.3828 53.1291 58.6026 53.3489 58.8737 53.3489H71.8893C72.1604 53.3489 72.3802 53.1291 72.3802 52.858V39.8424C72.3802 39.5713 72.1604 39.3516 71.8893 39.3516Z" fill="#D34D5C"/>
<path d="M90.9245 39.3516H77.9088C77.6377 39.3516 77.418 39.5713 77.418 39.8424V52.858C77.418 53.1291 77.6377 53.3489 77.9088 53.3489H90.9245C91.1956 53.3489 91.4153 53.1291 91.4153 52.858V39.8424C91.4153 39.5713 91.1956 39.3516 90.9245 39.3516Z" fill="#D34D5C"/>
<path d="M90.9245 58.3828H77.9088C77.6377 58.3828 77.418 58.6026 77.418 58.8737V71.8893C77.418 72.1604 77.6377 72.3802 77.9088 72.3802H90.9245C91.1956 72.3802 91.4153 72.1604 91.4153 71.8893V58.8737C91.4153 58.6026 91.1956 58.3828 90.9245 58.3828Z" fill="#D34D5C"/>
<path d="M71.8893 58.3828H58.8737C58.6026 58.3828 58.3828 58.6026 58.3828 58.8737V71.8893C58.3828 72.1604 58.6026 72.3802 58.8737 72.3802H71.8893C72.1604 72.3802 72.3802 72.1604 72.3802 71.8893V58.8737C72.3802 58.6026 72.1604 58.3828 71.8893 58.3828Z" fill="#D34D5C"/>
<path d="M71.8893 77.418H58.8737C58.6026 77.418 58.3828 77.6377 58.3828 77.9088V90.9245C58.3828 91.1956 58.6026 91.4153 58.8737 91.4153H71.8893C72.1604 91.4153 72.3802 91.1956 72.3802 90.9245V77.9088C72.3802 77.6377 72.1604 77.418 71.8893 77.418Z" fill="#D34D5C"/>
<path d="M90.9245 77.418H77.9088C77.6377 77.418 77.418 77.6377 77.418 77.9088V90.9245C77.418 91.1956 77.6377 91.4153 77.9088 91.4153H90.9245C91.1956 91.4153 91.4153 91.1956 91.4153 90.9245V77.9088C91.4153 77.6377 91.1956 77.418 90.9245 77.418Z" fill="#D34D5C"/>
<path d="M109.956 77.418H96.9401C96.669 77.418 96.4492 77.6377 96.4492 77.9088V90.9245C96.4492 91.1956 96.669 91.4153 96.9401 91.4153H109.956C110.227 91.4153 110.447 91.1956 110.447 90.9245V77.9088C110.447 77.6377 110.227 77.418 109.956 77.418Z" fill="#D34D5C"/>
<path d="M71.8893 96.4492H58.8737C58.6026 96.4492 58.3828 96.669 58.3828 96.9401V109.956C58.3828 110.227 58.6026 110.447 58.8737 110.447H71.8893C72.1604 110.447 72.3802 110.227 72.3802 109.956V96.9401C72.3802 96.669 72.1604 96.4492 71.8893 96.4492Z" fill="#D34D5C"/>
<path d="M90.9245 96.4492H77.9088C77.6377 96.4492 77.418 96.669 77.418 96.9401V109.956C77.418 110.227 77.6377 110.447 77.9088 110.447H90.9245C91.1956 110.447 91.4153 110.227 91.4153 109.956V96.9401C91.4153 96.669 91.1956 96.4492 90.9245 96.4492Z" fill="#D34D5C"/>
<path d="M109.956 96.4492H96.9401C96.669 96.4492 96.4492 96.669 96.4492 96.9401V109.956C96.4492 110.227 96.669 110.447 96.9401 110.447H109.956C110.227 110.447 110.447 110.227 110.447 109.956V96.9401C110.447 96.669 110.227 96.4492 109.956 96.4492Z" fill="#D34D5C"/>
<path d="M109.956 58.3828H96.9401C96.669 58.3828 96.4492 58.6026 96.4492 58.8737V71.8893C96.4492 72.1604 96.669 72.3802 96.9401 72.3802H109.956C110.227 72.3802 110.447 72.1604 110.447 71.8893V58.8737C110.447 58.6026 110.227 58.3828 109.956 58.3828Z" fill="#D34D5C"/>
<path d="M109.956 39.3516H96.9401C96.669 39.3516 96.4492 39.5713 96.4492 39.8424V52.858C96.4492 53.1291 96.669 53.3489 96.9401 53.3489H109.956C110.227 53.3489 110.447 53.1291 110.447 52.858V39.8424C110.447 39.5713 110.227 39.3516 109.956 39.3516Z" fill="#D34D5C"/>
</g>
<defs>
<clipPath id="clip0_172_579">
<rect width="109.86" height="109.86" fill="white" transform="translate(0.6875 0.6875)"/>
</clipPath>
</defs>
</svg>
