<svg width="1744" height="268" viewBox="0 0 1744 268" fill="none" xmlns="http://www.w3.org/2000/svg">
<g clip-path="url(#clip0_193_259)">
<path d="M809.83 0.109375V41.5494H863V161.999H915V41.5494H968V0.109375H809.83Z" fill="white"/>
<path d="M1102 0.109375V96.1094C1102 105.039 1099.55 112.269 1094.59 117.779C1089.63 123.289 1082.59 126.019 1073.3 126.019C1064.01 126.019 1057 123.289 1052.14 117.869C1047.28 112.449 1044.82 105.229 1044.82 96.1094V0.109375H992.82V96.8194C992.82 118.953 999.844 135.823 1013.89 147.429C1027.94 159.036 1047.81 164.836 1073.52 164.829C1099.26 164.829 1119.11 159.029 1133.06 147.429C1147.01 135.829 1154.01 118.959 1154.06 96.8194V0.109375H1102Z" fill="white"/>
<path d="M1304.83 67.7489L1363 1.12891H1298.51L1240.87 70.3389V1.12891H1188.87V163.069H1240.87V126.819L1269.11 103.819L1302.77 163.119H1364.16L1304.83 67.7489Z" fill="white"/>
<path d="M1494 0.109375V96.1094C1494 105.039 1491.55 112.269 1486.6 117.779C1481.65 123.289 1474.6 126.019 1465.3 126.019C1456 126.019 1449 123.289 1444.14 117.869C1439.28 112.449 1436.83 105.229 1436.83 96.1094V0.109375H1384.83V96.8194C1384.83 118.953 1391.85 135.823 1405.89 147.429C1419.93 159.036 1439.81 164.836 1465.52 164.829C1491.26 164.829 1511.11 159.029 1525.06 147.429C1539.01 135.829 1546.01 118.959 1546.06 96.8194V0.109375H1494Z" fill="white"/>
<path d="M1681.4 163.061H1629.38V100.221L1565.13 1.14062H1624.91L1655.98 55.0406H1656.92L1687.99 1.14062H1744.7L1681.4 100.221V163.061Z" fill="white"/>
<path d="M717.26 1.82812V267.998" stroke="#666666" stroke-width="3" stroke-miterlimit="10"/>
<path d="M537.21 108.37L631.76 0H526.85L433.09 112.57V0.05H432.9V157.35C432.9 193.35 421.567 220.787 398.9 239.66C385.46 250.873 368.684 258.75 348.57 263.29V263.43H433.17V204.43L479 167L533.76 263.47L633.68 263.42L537.21 108.37Z" fill="white"/>
<path d="M432.86 0H348.26V156.23C348.26 170.75 344.26 182.51 336.26 191.43C328.26 200.35 316.64 204.83 301.6 204.83C286.56 204.83 275.04 200.44 267.15 191.62C259.26 182.8 255.29 171.02 255.29 156.23V73.3H170.69V157.35C170.69 193.35 182.114 220.787 204.96 239.66C227.807 258.533 260.14 267.98 301.96 268C317.603 268.148 333.214 266.569 348.51 263.29L348.44 0.05H432.86V0Z" fill="white"/>
<path d="M432.88 0V157.37C432.88 193.37 421.524 220.807 398.81 239.68C385.377 250.84 368.604 258.703 348.49 263.27L348.45 0H432.88Z" fill="white"/>
<path d="M255.49 0.02V73.3H170.44V263.42H85.8403V67.42H-0.679688V0H171.66V0.02H255.49Z" fill="white"/>
</g>
<defs>
<clipPath id="clip0_193_259">
<rect width="1744" height="268" fill="white"/>
</clipPath>
</defs>
</svg>
