<svg width="361" height="361" viewBox="0 0 361 361" fill="none" xmlns="http://www.w3.org/2000/svg">
<g clip-path="url(#clip0_172_1210)">
<path d="M146.521 314.658C146.521 310.578 146.401 306.498 146.521 302.428C147.081 284.588 139.741 271.428 124.771 261.428C67.2509 222.928 60.2409 141.488 110.001 93.3184C141.341 62.9484 189.001 54.3684 228.791 71.9184C269.141 89.6984 294.941 129.828 293.791 173.638C292.791 210.438 277.031 239.638 246.961 260.738C231.561 271.528 223.191 285.198 224.151 304.328C224.601 313.428 224.311 322.558 224.211 331.678C224.021 348.608 213.051 359.678 196.331 359.908C188.651 359.998 180.971 360.068 173.331 359.908C158.231 359.548 147.141 348.508 146.671 333.408C146.371 327.148 146.531 320.898 146.521 314.658ZM206.771 303.228C206.321 276.828 219.371 259.438 239.491 244.638C270.641 221.708 281.751 189.638 274.491 151.918C266.811 112.158 228.311 76.4684 176.891 80.3584C134.761 83.5384 97.6309 120.068 94.5109 162.958C91.8509 199.378 105.891 227.958 136.071 248.338C151.311 258.628 160.321 272.538 163.161 290.548C163.811 294.708 163.921 298.958 164.271 303.048H176.731V294.848C176.731 269.848 176.731 244.938 176.731 219.988C176.731 212.598 180.231 208.188 185.731 208.798C192.401 209.538 193.981 214.208 193.961 220.158C193.871 245.348 193.911 270.548 193.961 295.738C193.961 298.248 194.171 300.738 194.291 303.228H206.771Z" />
<path d="M40.81 171.461C37.21 171.461 33.6 171.701 30.03 171.401C25.31 171.001 21.8 167.961 22.7 163.491C23.36 160.251 26.7 155.571 29.42 155.131C36.7435 153.961 44.2064 153.961 51.53 155.131C54.28 155.581 58.2 160.601 58.09 163.411C57.9799 166.221 53.89 169.661 50.74 171.161C48 172.481 44.16 171.451 40.81 171.461Z" />
<path d="M330.451 171.501C327.091 171.501 323.731 171.651 320.381 171.501C315.321 171.221 311.581 168.181 312.381 163.411C312.911 160.231 316.491 155.591 319.271 155.151C326.595 153.976 334.058 153.976 341.381 155.151C344.071 155.591 347.381 160.351 347.951 163.591C348.811 168.101 345.221 171.031 340.511 171.401C337.181 171.661 333.801 171.451 330.451 171.451V171.501Z" />
<path d="M193.861 18.6287C193.861 21.9688 194.231 25.3487 193.771 28.6287C193.101 33.4688 189.871 37.1087 185.081 35.8787C181.911 35.0687 177.661 31.4888 177.191 28.6188C176.041 21.5603 176.062 14.3606 177.251 7.30875C177.731 4.46875 182.491 0.46875 185.311 0.46875C188.131 0.46875 192.111 4.26875 193.481 7.34875C194.851 10.4288 193.801 14.8188 193.801 18.6287H193.861Z" />
<path d="M75.471 44.3906C78.351 45.8906 80.741 46.5906 82.381 48.1006C86.951 52.2706 91.381 56.6606 95.531 61.2106C99.071 65.0506 99.461 69.4806 95.681 73.3506C91.901 77.2206 87.531 77.0206 83.681 73.3506C78.821 68.7506 73.7811 64.2506 69.7311 59.0006C68.1011 56.9006 67.851 52.5906 68.811 50.0006C69.681 47.6606 73.091 46.2706 75.471 44.3906Z" />
<path d="M271.48 67.8718C273.16 64.8718 273.96 62.5518 275.48 60.8718C279.48 56.4918 283.74 52.2918 288.07 48.2118C292.12 44.4118 296.68 43.8718 300.73 47.9918C304.53 51.8818 304 56.2518 300.33 60.0618C295.88 64.6918 291.57 69.5718 286.53 73.4818C285.218 74.3472 283.733 74.9155 282.179 75.1469C280.624 75.3784 279.038 75.2674 277.53 74.8218C275.05 73.8818 273.5 70.3418 271.48 67.8718Z" />
</g>
<defs>
<clipPath id="clip0_172_1210">
<rect width="360.33" height="360.33" fill="white"/>
</clipPath>
</defs>
</svg>
