<svg width="361" height="361" viewBox="0 0 361 361" fill="none" xmlns="http://www.w3.org/2000/svg">
<path d="M233.63 293.262L146 225.142L105.26 262.372C104.407 262.022 103.598 261.573 102.85 261.032C78.6904 238.522 54.0904 216.452 30.5804 193.282C13.1104 176.062 10.1804 154.672 19.2504 132.282C31.9204 101.002 69.6704 88.4018 99.1804 105.002C101 106.002 102.79 107.122 104.55 108.152C128.93 93.1518 152.46 94.0518 175.84 111.682L233.6 66.8318C226.07 36.4618 234.14 15.0718 256.8 4.44183C266.595 -0.128662 277.671 -1.16554 288.144 1.50752C298.617 4.18057 307.84 10.3985 314.247 19.1041C320.653 27.8097 323.846 38.4655 323.284 49.2595C322.721 60.0536 318.437 70.3195 311.16 78.3118C298.03 92.7918 272.31 101.182 246.88 83.3118L188.74 128.452C204.04 163.572 188.82 188.652 161.09 210.072C190.09 232.622 218.3 254.542 246.93 276.812C258.98 267.882 272.45 264.422 287.17 267.682C297.81 270.033 307.251 276.13 313.77 284.862C320.169 293.264 323.535 303.585 323.319 314.144C323.104 324.703 319.319 334.877 312.582 343.011C305.845 351.144 296.552 356.756 286.218 358.934C275.884 361.111 265.116 359.725 255.67 355.002C233.64 343.892 225.94 322.662 233.63 293.262ZM104.63 234.902C124.91 215.682 144.31 197.722 163.2 179.242C166.509 175.997 169.14 172.129 170.941 167.859C172.742 163.59 173.678 159.006 173.694 154.372C173.71 149.739 172.805 145.148 171.033 140.867C169.261 136.586 166.656 132.699 163.37 129.432C149.64 115.522 127.86 115.222 113.46 128.822C110.59 131.522 108 134.522 104.12 138.612C100.74 134.612 98.1204 130.692 94.6304 127.612C87.9697 121.756 79.3502 118.619 70.4837 118.825C61.6172 119.031 53.1524 122.563 46.7704 128.722C33.7004 141.312 31.2404 163.332 43.3504 175.792C62.8404 195.882 83.5904 214.782 104.58 234.902H104.63ZM276.52 72.3118C283.275 72.3443 289.77 69.7108 294.595 64.9833C299.42 60.2558 302.185 53.8159 302.29 47.0618C302.48 33.2418 291 21.4318 277 21.1918C270.221 21.1229 263.693 23.7497 258.851 28.4943C254.008 33.239 251.249 39.7129 251.18 46.4918C251.111 53.2708 253.738 59.7994 258.483 64.6416C263.228 69.4838 269.701 72.2429 276.48 72.3118H276.52ZM276.73 338.862C283.48 338.766 289.927 336.041 294.698 331.265C299.47 326.49 302.19 320.042 302.28 313.292C302.328 309.877 301.695 306.487 300.417 303.321C299.14 300.154 297.243 297.273 294.84 294.848C292.436 292.422 289.572 290.5 286.417 289.195C283.262 287.889 279.878 287.225 276.463 287.242C273.048 287.26 269.671 287.957 266.529 289.295C263.387 290.633 260.543 292.584 258.164 295.033C255.785 297.483 253.918 300.383 252.673 303.562C251.427 306.742 250.828 310.138 250.91 313.552C251.072 320.302 253.86 326.723 258.681 331.449C263.503 336.176 269.978 338.835 276.73 338.862Z" />
</svg>
