<svg width="361" height="361" viewBox="0 0 361 361" fill="none" xmlns="http://www.w3.org/2000/svg">
<path d="M112.778 145.919C118.638 143.079 124.388 140.489 129.948 137.549C133.76 135.534 137.099 132.73 139.744 129.325C142.389 125.92 144.279 121.991 145.288 117.799C148.648 104.729 150.788 91.3291 153.288 78.0491C154.558 71.2991 154.968 64.3591 156.668 57.7491C158.878 49.1591 163.418 46.1591 172.148 46.6291C193.548 47.7791 208.568 58.5591 215.458 78.5591C219.338 89.8091 221.008 102.009 222.238 113.929C223.338 124.599 222.468 135.459 222.468 146.999H228.178C248.638 146.999 269.098 146.999 289.558 146.999C313.338 147.049 328.098 165.799 321.218 188.659C313.408 214.599 304.358 240.169 295.788 265.879C293.028 274.159 290.298 282.459 287.158 290.589C280.528 307.759 271.108 314.079 252.828 314.079C211.535 314.079 170.245 314.079 128.958 314.079C124.338 314.079 119.718 313.469 114.588 313.079C114.198 314.079 113.658 315.609 113.008 317.079C108.878 326.439 101.778 331.869 91.4981 332.209C81.2181 332.549 70.6681 332.489 60.2581 332.209C54.1247 332.12 48.2743 329.614 43.9773 325.237C39.6803 320.859 37.2838 314.963 37.3081 308.829C37.1681 257.682 37.1681 206.532 37.3081 155.379C37.3121 149.342 39.6814 143.547 43.9081 139.236C48.1347 134.925 53.8822 132.442 59.9181 132.319C70.5081 131.999 81.1181 132.129 91.7181 132.259C101.418 132.399 107.998 137.739 112.778 145.919ZM173.418 64.7391C173.008 66.9691 172.578 68.9191 172.288 70.8891C170.438 83.5691 169.058 96.3391 166.678 108.889C162.248 132.239 150.808 150.339 127.288 158.889C124.358 159.949 121.698 161.789 118.968 163.359C115.798 165.169 114.548 167.759 114.558 171.609C114.698 210.102 114.698 248.599 114.558 287.099C114.558 292.619 116.978 294.919 121.778 295.689C123.983 296.01 126.21 296.15 128.438 296.109C170.278 296.109 212.128 295.959 253.968 296.269C262.158 296.329 267.018 293.069 269.718 285.839C272.498 278.359 275.218 270.839 277.718 263.289C286.528 236.879 295.578 210.539 303.828 183.959C307.568 171.959 301.518 164.959 288.988 164.959C264.435 164.959 239.885 164.959 215.338 164.959C206.658 164.959 203.488 161.809 203.668 153.229C203.918 140.769 205.228 128.229 204.338 115.889C203.495 104.804 201.368 93.8536 197.998 83.2591C194.548 72.3691 185.998 66.1291 173.418 64.7391ZM55.1281 232.059C55.1281 256.399 55.1281 280.732 55.1281 305.059C55.1281 312.889 56.6681 314.369 64.6481 314.389C72.2548 314.389 79.8715 314.389 87.4981 314.389C95.2281 314.389 96.7081 312.969 96.7181 305.389C96.7181 288.299 96.7181 271.209 96.7181 254.109C96.7181 222.902 96.7181 191.689 96.7181 160.469C96.7181 150.809 95.9981 150.109 86.1381 150.109C78.7081 150.109 71.2781 150.109 63.8381 150.109C56.5881 150.109 55.1281 151.629 55.1181 159.019C55.1115 183.372 55.1148 207.719 55.1281 232.059Z" />
</svg>
