<svg width="170" height="170" viewBox="0 0 170 170" fill="none" xmlns="http://www.w3.org/2000/svg">
<g clip-path="url(#clip0_172_1206)">
<path d="M129.945 29.9576C127.947 29.9576 125.994 30.55 124.333 31.6598C122.672 32.7696 121.378 34.347 120.613 36.1925C119.849 38.038 119.649 40.0688 120.039 42.028C120.428 43.9872 121.39 45.7869 122.803 47.1994C124.215 48.6119 126.015 49.5738 127.974 49.9635C129.933 50.3532 131.964 50.1532 133.81 49.3888C135.655 48.6243 137.233 47.3298 138.343 45.6689C139.452 44.0079 140.045 42.0552 140.045 40.0576C140.045 37.3789 138.981 34.8099 137.086 32.9158C135.192 31.0217 132.623 29.9576 129.945 29.9576ZM168.661 50.3259C168.498 43.3426 167.19 36.4334 164.79 29.8734C162.65 24.2606 159.319 19.1782 155.026 14.9759C150.859 10.6618 145.764 7.35192 140.129 5.29677C133.586 2.82362 126.669 1.48579 119.676 1.34094C110.755 0.835937 107.893 0.835938 84.9997 0.835938C62.1063 0.835938 59.2447 0.835937 50.323 1.34094C43.33 1.48579 36.4131 2.82362 29.8705 5.29677C24.2455 7.37273 19.1555 10.6797 14.973 14.9759C10.6588 19.1437 7.34899 24.238 5.29384 29.8734C2.82069 36.4161 1.48286 43.333 1.33801 50.3259C0.833007 59.2476 0.833008 62.1093 0.833008 85.0026C0.833008 107.896 0.833007 110.758 1.33801 119.679C1.48286 126.672 2.82069 133.589 5.29384 140.132C7.34899 145.767 10.6588 150.862 14.973 155.029C19.1555 159.325 24.2455 162.632 29.8705 164.708C36.4131 167.182 43.33 168.519 50.323 168.664C59.2447 169.169 62.1063 169.169 84.9997 169.169C107.893 169.169 110.755 169.169 119.676 168.664C126.669 168.519 133.586 167.182 140.129 164.708C145.764 162.653 150.859 159.343 155.026 155.029C159.338 150.843 162.672 145.756 164.79 140.132C167.19 133.572 168.498 126.663 168.661 119.679C168.661 110.758 169.166 107.896 169.166 85.0026C169.166 62.1093 169.166 59.2476 168.661 50.3259ZM153.511 118.669C153.45 124.012 152.482 129.305 150.65 134.324C149.306 137.987 147.147 141.297 144.337 144.003C141.607 146.785 138.304 148.939 134.658 150.316C129.639 152.149 124.346 153.116 119.003 153.178C110.586 153.598 107.472 153.683 85.3363 153.683C63.2005 153.683 60.0863 153.683 51.6697 153.178C46.1222 153.281 40.5984 152.427 35.3413 150.653C31.855 149.206 28.7036 147.057 26.083 144.34C23.2894 141.636 21.1579 138.324 19.8547 134.661C17.7998 129.57 16.6601 124.156 16.488 118.669C16.488 110.253 15.983 107.138 15.983 85.0026C15.983 62.8668 15.983 59.7526 16.488 51.3359C16.5257 45.874 17.5228 40.4611 19.4338 35.3443C20.9156 31.7917 23.1899 28.6249 26.083 26.0859C28.6401 23.192 31.8003 20.8937 35.3413 19.3526C40.4717 17.5013 45.879 16.5337 51.333 16.4909C59.7497 16.4909 62.8638 15.9859 84.9997 15.9859C107.136 15.9859 110.25 15.9859 118.666 16.4909C124.009 16.5522 129.303 17.5198 134.321 19.3526C138.146 20.7721 141.579 23.0799 144.337 26.0859C147.095 28.6714 149.251 31.8323 150.65 35.3443C152.52 40.4695 153.489 45.8801 153.511 51.3359C153.932 59.7526 154.016 62.8668 154.016 85.0026C154.016 107.138 153.932 110.253 153.511 118.669ZM84.9997 41.8251C76.4636 41.8417 68.1239 44.3882 61.0345 49.1427C53.9451 53.8972 48.424 60.6464 45.1689 68.5375C41.9138 76.4286 41.0708 85.1075 42.7463 93.4776C44.4218 101.848 48.5407 109.533 54.5825 115.563C60.6243 121.593 68.3179 125.697 76.6912 127.357C85.0646 129.016 93.7418 128.156 101.627 124.885C109.511 121.615 116.25 116.081 120.99 108.982C125.731 101.883 128.261 93.5387 128.261 85.0026C128.272 79.3222 127.16 73.6957 124.989 68.4467C122.818 63.1976 119.631 58.4296 115.61 54.4169C111.589 50.4041 106.815 47.2259 101.562 45.0649C96.3087 42.904 90.68 41.8029 84.9997 41.8251ZM84.9997 113.03C79.4564 113.03 74.0375 111.386 69.4284 108.307C64.8193 105.227 61.227 100.85 59.1056 95.7283C56.9843 90.6069 56.4293 84.9715 57.5107 79.5347C58.5922 74.0979 61.2615 69.1039 65.1812 65.1842C69.101 61.2645 74.095 58.5951 79.5318 57.5136C84.9686 56.4322 90.604 56.9872 95.7253 59.1086C100.847 61.2299 105.224 64.8223 108.304 69.4314C111.383 74.0405 113.027 79.4593 113.027 85.0026C113.027 88.6832 112.302 92.3278 110.894 95.7283C109.485 99.1287 107.421 102.218 104.818 104.821C102.216 107.424 99.1258 109.488 95.7253 110.897C92.3249 112.305 88.6803 113.03 84.9997 113.03Z" />
</g>
<defs>
<clipPath id="clip0_172_1206">
<rect width="170" height="170" fill="white"/>
</clipPath>
</defs>
</svg>
