<svg width="181" height="181" viewBox="0 0 181 181" fill="none" xmlns="http://www.w3.org/2000/svg">
<g clip-path="url(#clip0_172_1205)">
<path d="M90.2363 181.338C68.8041 181.338 47.3853 181.338 25.9799 181.338C10.5185 181.338 0 170.855 0 155.439C0 112.367 0 69.2929 0 26.2175C0 11.0526 10.5738 0.503906 25.804 0.503906C68.8794 0.503906 111.953 0.503906 155.025 0.503906C170.255 0.503906 180.834 11.0526 180.834 26.2226C180.854 69.4218 180.854 112.621 180.834 155.82C180.834 170.769 170.215 181.328 155.216 181.348C133.553 181.362 111.893 181.358 90.2363 181.338ZM96.2139 80.8747C96.2139 78.9458 96.2139 78.1622 96.2139 77.3585C96.1335 72.2298 95.6462 71.7576 90.4623 71.7476C86.1072 71.7476 81.7572 71.7225 77.4021 71.7476C73.3433 71.7777 72.5045 72.6166 72.4492 76.7707C72.399 80.4176 72.4492 84.0644 72.4492 87.7162C72.4492 105.719 72.4492 123.722 72.4492 141.725C72.4492 146.543 73.2579 147.331 77.9345 147.351C82.2879 147.351 86.6414 147.351 90.9948 147.351C95.2896 147.351 96.1586 146.482 96.1636 142.167C96.1636 131.116 95.9024 120.035 96.3143 108.989C96.568 104.815 97.6201 100.727 99.4136 96.9488C101.523 92.3526 105.944 90.6849 110.927 91.132C116.04 91.5891 119.521 94.3619 120.792 99.3348C121.58 102.399 122.007 105.545 122.063 108.708C122.214 119.89 122.103 131.066 122.123 142.248C122.123 146.467 123.053 147.356 127.358 147.376C132.064 147.402 136.771 147.412 141.478 147.376C145.531 147.341 146.451 146.452 146.476 142.353C146.521 135.647 146.596 128.936 146.446 122.23C146.23 112.832 146.34 103.384 145.356 94.0555C144.039 81.5679 136.982 73.355 126.408 71.401C115.292 69.3214 104.758 70.2758 96.2139 80.8747ZM61.5791 109.683C61.5791 98.7522 61.5791 87.8217 61.5791 76.8863C61.5791 72.8376 60.5744 71.7978 56.6513 71.7576C51.9497 71.7074 47.2429 71.8078 42.5463 71.7275C39.246 71.6672 37.8044 73.2897 37.8044 76.4392C37.8044 98.5412 37.8044 120.643 37.8044 142.745C37.8044 145.93 39.3867 147.467 42.6216 147.417C47.0872 147.351 51.5528 147.417 56.0184 147.417C60.5694 147.417 61.5741 146.412 61.5791 141.801C61.5925 131.098 61.5925 120.397 61.5791 109.698V109.683ZM65.0451 49.7662C65.0163 46.7462 64.0961 43.802 62.4001 41.3031C60.7041 38.8042 58.3078 36.8619 55.5119 35.7199C52.716 34.578 49.6452 34.2872 46.6846 34.8842C43.7241 35.4812 41.0059 36.9393 38.8711 39.0755C36.7362 41.2117 35.2799 43.9309 34.6848 46.8918C34.0898 49.8527 34.3825 52.9234 35.5263 55.7185C36.6701 58.5137 38.6139 60.9087 41.114 62.6031C43.614 64.2975 46.5587 65.2157 49.5787 65.2426C51.6157 65.2654 53.6368 64.8812 55.5232 64.1123C57.4097 63.3435 59.1236 62.2055 60.5643 60.7653C62.0049 59.3251 63.1434 57.6116 63.9129 55.7254C64.6824 53.8391 65.0673 51.8182 65.0451 49.7812V49.7662Z" />
</g>
<defs>
<clipPath id="clip0_172_1205">
<rect width="181" height="181" fill="white"/>
</clipPath>
</defs>
</svg>
