<svg width="242"  preserveAspectRatio="xMidYMid meet" viewBox="0 0 242 360" fill="none" xmlns="http://www.w3.org/2000/svg">
<path d="M92.3049 140.306L92.2818 140.432C90.908 147.936 89.2102 155.417 87.5745 162.624C87.0064 165.127 86.4458 167.597 85.9088 170.024C85.9123 171.009 86.0679 171.652 86.2236 172.027C86.3071 172.228 86.3849 172.339 86.43 172.393C86.4726 172.444 86.4993 172.461 86.5105 172.468C86.5222 172.474 86.5595 172.495 86.6455 172.511C86.7355 172.528 86.8953 172.543 87.1401 172.517C87.6451 172.464 88.4379 172.244 89.5053 171.646L89.5163 171.639L89.5274 171.633C97.7797 167.079 105.922 162.424 113.767 157.403L113.768 157.403C116.052 155.941 118.465 154.984 121.146 155.043C123.794 155.101 126.128 156.141 128.274 157.517L128.282 157.522L128.29 157.527C135.535 162.218 142.986 166.552 150.645 170.567C151.481 170.997 152.673 171.377 153.843 171.527C154.361 171.593 154.811 171.605 155.171 171.58C155.208 171.427 155.245 171.248 155.279 171.042C155.475 169.855 155.459 168.507 155.312 167.685L155.311 167.678L155.31 167.671C153.789 158.972 151.895 150.392 149.577 141.919L92.3049 140.306ZM92.3049 140.306L92.3198 140.178M92.3049 140.306L92.3198 140.178M92.3198 140.178C92.534 138.356 92.3587 136.51 91.8059 134.76C91.2531 133.011 90.3358 131.399 89.1159 130.028L89.0055 129.904M92.3198 140.178L89.0055 129.904M89.0055 129.904L88.8852 129.79M89.0055 129.904L88.8852 129.79M88.8852 129.79C85.3051 126.383 81.5824 123.147 77.933 119.981L77.6706 119.753C74.0908 116.647 70.586 113.607 67.2264 110.439C66.822 110.057 66.2496 109.254 65.8606 108.339C65.7346 108.043 65.6516 107.79 65.601 107.59C65.7801 107.433 66.0289 107.246 66.346 107.05C67.2248 106.507 68.1547 106.185 68.6827 106.114L68.6892 106.113M88.8852 129.79L68.6892 106.113M68.6892 106.113C72.9175 105.535 77.1826 105.156 81.557 104.766C81.9232 104.734 82.2902 104.701 82.658 104.668C87.3809 104.246 92.2218 103.794 97.0435 103.049L97.1667 103.03M68.6892 106.113L97.1667 103.03M97.1667 103.03L97.2884 103.003M97.1667 103.03L97.2884 103.003M97.2884 103.003C99.2883 102.566 101.177 101.722 102.836 100.524C104.495 99.3262 105.889 97.7992 106.927 96.0374L106.988 95.935M97.2884 103.003L106.988 95.935M106.988 95.935L107.042 95.8291M106.988 95.935L107.042 95.8291M107.042 95.8291C109.096 91.8176 110.852 87.6869 112.542 83.6989L112.646 83.4531C114.316 79.51 115.926 75.7097 117.77 72.0461L117.774 72.0392M107.042 95.8291L117.774 72.0392M117.774 72.0392C118.248 71.0933 119.046 69.9958 119.973 69.1093M117.774 72.0392L119.973 69.1093M96.879 137.424C95.7659 141.857 94.7673 146.356 93.6378 151.445C93.1464 153.659 92.6304 155.985 92.0693 158.465L91.9707 158.9V159.347V159.378V166.324L97.9785 162.837C100.3 161.49 102.5 160.239 104.603 159.043C109.301 156.371 113.518 153.973 117.54 151.384M96.879 137.424L100.757 138.398L96.8781 137.427C96.8784 137.426 96.8787 137.425 96.879 137.424ZM96.879 137.424C97.3711 135.455 97.3408 134.104 97.0325 133.085C96.7382 132.111 96.0649 131.023 94.4777 129.794L94.476 129.793C90.8208 126.96 87.3183 123.801 83.504 120.361C81.7722 118.8 79.9762 117.18 78.0724 115.506L71.2106 109.474L80.2971 108.524C82.6618 108.276 84.9473 108.007 87.1733 107.745C92.3036 107.14 97.1174 106.573 101.854 106.398L101.861 106.397C103.992 106.322 105.263 105.888 106.109 105.316C106.929 104.763 107.747 103.813 108.478 101.947M108.478 101.947C108.477 101.949 108.477 101.95 108.477 101.951L112.204 103.402M108.478 101.947C110.164 97.6162 112.092 93.3133 114.206 88.5961C115.18 86.4215 116.194 84.1589 117.242 81.765L120.892 73.4269L124.566 81.754C125.617 84.1365 126.627 86.3889 127.596 88.5528C129.815 93.503 131.826 97.9902 133.656 102.512L133.659 102.519L133.661 102.526C134.304 104.131 135.007 104.923 135.683 105.382C136.386 105.858 137.46 106.245 139.303 106.339C144.033 106.574 148.817 107.077 154.047 107.627C156.433 107.878 158.912 108.138 161.521 108.388L170.664 109.262L163.797 115.361C161.961 116.991 160.207 118.593 158.501 120.151C154.692 123.631 151.119 126.894 147.392 129.779C145.798 131.025 145.113 132.118 144.813 133.089C144.5 134.098 144.461 135.433 144.954 137.391C146.048 141.732 147.024 146.135 148.112 151.04C148.623 153.344 149.159 155.758 149.743 158.329L151.765 167.233L143.849 162.683C141.544 161.358 139.334 160.117 137.201 158.919C132.608 156.339 128.376 153.962 124.347 151.398C122.806 150.429 121.741 150.157 120.921 150.155C120.109 150.153 119.059 150.413 117.54 151.384M108.478 101.947L117.54 151.384M112.204 103.402C110.324 108.206 107.201 110.212 102.002 110.395C97.4316 110.564 92.8713 111.101 87.8265 111.696C87.2462 111.765 86.6596 111.834 86.0658 111.904C85.199 111.128 84.2978 110.327 83.3542 109.498L80.7133 112.502L81.1296 116.48C82.3757 116.35 83.575 116.217 84.7352 116.085C85.2719 116.568 85.7989 117.043 86.3178 117.511C90.0664 120.893 93.3914 123.892 96.9262 126.631C101.108 129.868 101.961 133.594 100.759 138.398C99.6594 142.775 98.6792 147.192 97.5563 152.252C97.423 152.852 97.2877 153.462 97.1499 154.082C96.124 154.669 95.0633 155.28 93.9629 155.918L95.9503 159.343L95.953 159.347L95.9707 159.378H96.1057L99.8721 160.23C100.15 159.003 100.415 157.822 100.67 156.678C101.373 156.278 102.062 155.886 102.739 155.501L102.74 155.5C107.383 152.86 111.451 150.547 115.379 148.018M112.204 103.402C113.853 99.1644 115.717 95.0071 117.807 90.3437L117.807 90.3433L117.808 90.3411C118.107 89.6728 118.411 88.9941 118.72 88.3034L112.204 103.402ZM115.379 148.018L117.534 151.387C117.536 151.386 117.538 151.385 117.54 151.384M115.379 148.018L117.544 151.381C117.543 151.382 117.542 151.383 117.54 151.384M115.379 148.018L117.54 151.384M119.973 69.1093C120.438 68.6644 120.85 68.3537 121.186 68.1435M119.973 69.1093L121.186 68.1435M121.186 68.1435C121.323 68.2671 121.477 68.4148 121.646 68.5883C122.604 69.5763 123.51 70.8563 123.958 71.7467L121.186 68.1435ZM123.502 305.69L120.938 303.547L118.373 305.69C113.759 309.545 109.188 313.373 104.645 317.177C89.7951 329.613 75.2497 341.793 60.5491 353.804C59.8195 354.395 58.7587 354.889 57.1623 355.426C56.7327 355.57 56.1959 355.736 55.6077 355.918C55.5891 355.924 55.5705 355.93 55.5519 355.936C55.5418 355.913 55.5318 355.891 55.5219 355.868C55.2733 355.309 55.0482 354.803 54.8802 354.398C54.2376 352.847 53.9472 351.778 53.9419 350.918C53.7022 308.602 53.7022 266.285 53.9419 223.968L53.942 223.957V223.946C53.942 221.122 53.5533 218.491 52.3943 216.007C51.2312 213.514 49.4413 211.488 47.1393 209.633C27.8516 194.094 14.0715 172.873 7.79264 149.055C1.51381 125.238 3.0611 100.058 12.2111 77.17C21.3612 54.2813 37.6402 34.8712 58.6912 21.7638C79.7426 8.65599 104.467 2.53573 129.274 4.29621L129.276 4.29632C176.843 7.65341 218.325 40.14 232.598 85.1188L232.599 85.1224C239.648 107.263 239.801 130.993 233.038 153.22C226.275 175.448 212.908 195.147 194.674 209.747C192.521 211.467 190.778 213.367 189.62 215.736C188.458 218.113 188.036 220.651 188.036 223.406V223.415L188.036 223.423C188.214 265.485 188.197 307.571 187.984 349.681L187.984 349.691V349.701C187.984 350.833 187.638 352.155 186.961 353.924C186.773 354.415 186.53 355.006 186.265 355.65C186.24 355.711 186.214 355.774 186.188 355.836C185.574 355.615 185.006 355.411 184.537 355.23C182.854 354.582 181.645 353.981 180.765 353.254L180.751 353.243L180.738 353.233C165.635 340.967 150.766 328.516 135.625 315.835C131.606 312.47 127.569 309.089 123.502 305.69ZM177.711 346.443L184.272 351.908V343.369V224.73V218.208L178.458 221.164C139.905 240.772 101.831 240.748 63.5732 221.257L57.7574 218.294V224.821V343.186V351.59L64.2799 346.291C65.2882 345.471 66.2006 344.735 67.0471 344.053C68.5539 342.837 69.8519 341.79 71.1097 340.742L71.1134 340.739C75.8408 336.789 80.587 332.842 85.3384 328.892C96.044 319.991 106.776 311.067 117.378 302.032L117.385 302.026C119.312 300.376 120.451 300.055 121.086 300.048C121.639 300.042 122.648 300.264 124.358 301.888C126.616 304.036 129.122 306.063 131.474 307.966C132.455 308.76 133.41 309.532 134.309 310.283L134.313 310.286L177.711 346.443ZM121.098 232.567H121.098C183.274 232.462 234.404 181.958 234.554 120.32C234.714 58.2515 183.656 7.50606 121.107 7.43224C58.4929 7.35843 7.26906 57.9191 7.27972 119.944C7.29038 181.964 58.6323 232.662 121.098 232.567ZM214.235 120.167L214.235 120.178C214.19 138.448 208.678 156.298 198.392 171.47C188.105 186.643 173.504 198.459 156.431 205.417C139.358 212.376 120.583 214.163 102.482 210.55C84.3821 206.938 67.7746 198.09 54.758 185.131C41.7417 172.172 32.9006 155.685 29.3466 137.756C25.7928 119.827 27.6844 101.257 34.7841 84.3912C41.8839 67.5252 53.8749 53.1177 69.2464 42.9951C84.6184 32.8722 102.679 27.4906 121.144 27.535L121.154 27.535C133.422 27.5322 145.568 29.9317 156.895 34.5945C168.221 39.2572 178.504 46.0908 187.152 54.7007C195.8 63.3106 202.643 73.5268 207.291 84.7613C211.938 95.9958 214.297 108.028 214.235 120.167ZM121.947 30.8651L121.938 30.8649C98.1916 30.5378 75.2789 39.5656 58.238 55.9753C41.1958 72.3863 31.4213 94.8383 31.0754 118.398L31.0753 118.402C30.3978 167.733 69.5515 208.139 118.835 208.981L118.836 208.981C169.041 209.82 209.875 171.259 210.758 121.867C211.651 71.8584 172.412 31.6735 121.947 30.8651ZM123.96 71.7491C127.577 78.958 130.783 86.408 133.706 93.9792L123.96 71.7491ZM154.954 172.225C154.953 172.224 154.961 172.207 154.98 172.177C154.964 172.211 154.954 172.226 154.954 172.225ZM65.5372 107.218C65.5374 107.218 65.5377 107.224 65.5374 107.234C65.5368 107.223 65.537 107.218 65.5372 107.218ZM65.3431 107.852C65.3395 107.857 65.3375 107.86 65.3374 107.86C65.3372 107.86 65.339 107.857 65.3431 107.852ZM120.568 67.6647C120.568 67.6649 120.57 67.6658 120.573 67.6676C120.569 67.6656 120.567 67.6646 120.568 67.6647Z" fill="rgb(31, 48, 70)" stroke="rgb(31, 48, 70)" stroke-width="15" stroke-miterlimit="10"/>
</svg>
