<svg width="360" height="248" viewBox="0 0 360 248" fill="none" xmlns="http://www.w3.org/2000/svg">
<g clip-path="url(#clip0_1_1791)">
<path d="M167.999 22.0784C147.659 23.3584 128.719 28.6484 109.999 37.6784C115.419 47.1484 120.689 55.9984 125.619 64.9984C129.619 72.3284 126.399 80.2484 119.089 81.5584C113.469 82.5584 109.639 79.8484 106.929 75.1784C101.929 66.5284 96.8695 57.8584 91.4495 48.5384C74.2857 59.8149 59.5752 74.4404 48.1995 91.5384C57.8095 97.1284 67.1995 101.918 75.7395 107.938C78.7395 110.038 81.0595 115.288 80.8395 118.938C80.6695 121.878 76.6795 125.718 73.5095 126.998C70.9195 128.048 66.6895 126.568 63.7895 125.058C55.0995 120.538 46.6995 115.448 37.4495 110.158C28.1193 128.443 22.7653 148.496 21.7395 168.998C29.8695 168.998 37.3095 168.998 44.7395 168.998C47.7395 168.998 50.8495 168.868 53.8795 169.138C60.6695 169.738 64.6095 173.778 64.5795 179.808C64.5495 185.838 60.5795 189.958 53.7195 190.328C46.4795 190.708 39.1995 190.458 31.9295 190.478H20.8195C22.9995 201.998 24.9995 212.638 27.1695 223.218C27.8295 226.398 29.2295 229.428 30.1095 232.578C32.1095 239.578 29.6295 245.108 23.8595 246.928C17.5495 248.928 12.2095 246.058 9.74946 238.928C-2.25054 203.828 -3.79054 168.258 6.04946 132.468C17.0985 92.2008 41.7976 57.0244 75.9205 32.9581C110.043 8.89178 151.469 -2.56841 193.109 0.538436C309.109 8.93844 386.989 124.358 351.249 234.838C348.759 242.528 344.139 246.348 338.379 245.068C332.619 243.788 329.379 240.018 329.599 234.068C329.699 231.328 331.039 228.668 331.599 225.928C334.039 214.568 336.399 203.198 339.079 190.478C329.079 190.478 320.989 190.478 312.869 190.478C309.829 190.593 306.785 190.446 303.769 190.038C298.269 189.038 294.989 185.608 295.019 179.838C295.019 173.838 298.329 169.838 304.269 169.428C312.199 168.848 320.189 169.098 328.149 169.018C331.149 169.018 334.149 169.018 337.739 169.018C336.849 147.888 331.309 129.018 322.249 110.188C313.169 115.348 304.579 120.468 295.749 125.128C293.009 126.578 288.949 128.288 286.749 127.248C283.369 125.708 279.339 122.158 278.749 118.888C278.159 115.618 280.559 110.468 283.339 108.358C289.809 103.438 297.339 99.8584 304.389 95.7284C306.559 94.4584 308.709 93.1484 311.389 91.5584C299.839 74.2284 285.799 60.4584 268.269 48.4684C263.629 56.4184 259.199 63.9884 254.789 71.5684C249.059 81.4184 243.639 84.1284 237.259 80.2884C230.879 76.4484 230.669 70.6384 236.409 60.6784C240.719 53.2084 245.049 45.7484 249.639 37.8284C230.959 28.5184 211.929 23.5184 190.579 21.9784C190.579 30.9784 190.579 39.7884 190.579 48.5684C190.579 60.0984 187.369 64.9284 179.809 64.9184C172.249 64.9084 169.069 59.9984 168.999 48.4884C168.999 40.2984 168.859 32.0984 168.759 23.8984C168.759 23.4884 168.409 23.0684 167.999 22.0784Z" fill="rgb(31, 48, 70)"/>
<path d="M175.19 209.25C166.69 209.07 157.24 203.25 152.19 191.73C147.14 180.21 148.9 169.13 157.42 159.73C165.73 150.57 176.42 147.73 188.04 151.45C193.22 153.12 195.97 152.04 199.37 148.27C212.08 134.19 225.14 120.44 238.05 106.55C241.85 102.47 246.14 100.1 251.76 102.68C258.76 105.9 259.89 114.23 253.84 120.82C240.073 135.82 226.193 150.724 212.2 165.53C209.25 168.66 208.2 171.43 208.9 175.98C211.63 193.59 197.44 209.25 175.19 209.25ZM179.32 188.12C184.41 187.74 187.73 184.89 187.8 179.89C187.87 174.89 184.8 171.46 179.6 171.36C174.4 171.26 171.3 174.36 171.14 179.5C170.98 184.64 174.12 187.46 179.32 188.12Z" fill="#344967"/>
</g>
<defs>
<clipPath id="clip0_1_1791">
<rect width="360" height="248" fill="white"/>
</clipPath>
</defs>
</svg>
