<svg width="24" height="16" viewBox="0 0 24 16" fill="none" xmlns="http://www.w3.org/2000/svg">
<path d="M1.26667 6.6665H22.7333C23.4329 6.6665 24 7.23361 24 7.93317V8.0665C24 8.76606 23.4329 9.33317 22.7333 9.33317H1.26667C0.567106 9.33317 0 8.76606 0 8.0665V7.93317C0 7.23361 0.567106 6.6665 1.26667 6.6665Z" fill="black"/>
<path d="M1.26667 13.3335H22.7333C23.4329 13.3335 24 13.9006 24 14.6002V14.7335C24 15.4331 23.4329 16.0002 22.7333 16.0002H1.26667C0.567106 16.0002 0 15.4331 0 14.7335V14.6002C0 13.9006 0.567106 13.3335 1.26667 13.3335Z" fill="black"/>
<path d="M1.26667 0H22.7333C23.4329 0 24 0.567106 24 1.26667V1.4C24 2.09956 23.4329 2.66667 22.7333 2.66667H1.26667C0.567106 2.66667 0 2.09956 0 1.4V1.26667C0 0.567106 0.567106 0 1.26667 0Z" fill="black"/>
</svg>
