<svg width="1744" height="268" viewBox="0 0 1744 268" fill="none" xmlns="http://www.w3.org/2000/svg">
<g clip-path="url(#clip0_193_260)">
<path d="M809.83 0.109375V41.5494H863V161.999H915V41.5494H968V0.109375H809.83Z" fill="#344967"/>
<path d="M1102 0.109375V96.1094C1102 105.039 1099.55 112.269 1094.59 117.779C1089.63 123.289 1082.59 126.019 1073.3 126.019C1064.01 126.019 1057 123.289 1052.14 117.869C1047.28 112.449 1044.82 105.229 1044.82 96.1094V0.109375H992.82V96.8194C992.82 118.953 999.844 135.823 1013.89 147.429C1027.94 159.036 1047.81 164.836 1073.52 164.829C1099.26 164.829 1119.11 159.029 1133.06 147.429C1147.01 135.829 1154.01 118.959 1154.06 96.8194V0.109375H1102Z" fill="#344967"/>
<path d="M1304.83 67.7489L1363 1.12891H1298.51L1240.87 70.3389V1.12891H1188.87V163.069H1240.87V126.819L1269.11 103.819L1302.77 163.119H1364.16L1304.83 67.7489Z" fill="#344967"/>
<path d="M1494 0.109375V96.1094C1494 105.039 1491.55 112.269 1486.6 117.779C1481.65 123.289 1474.6 126.019 1465.3 126.019C1456 126.019 1449 123.289 1444.14 117.869C1439.28 112.449 1436.83 105.229 1436.83 96.1094V0.109375H1384.83V96.8194C1384.83 118.953 1391.85 135.823 1405.89 147.429C1419.93 159.036 1439.81 164.836 1465.52 164.829C1491.26 164.829 1511.11 159.029 1525.06 147.429C1539.01 135.829 1546.01 118.959 1546.06 96.8194V0.109375H1494Z" fill="#344967"/>
<path d="M1681.4 163.061H1629.38V100.221L1565.13 1.14062H1624.91L1655.98 55.0406H1656.92L1687.99 1.14062H1744.7L1681.4 100.221V163.061Z" fill="#344967"/>
<path d="M870.283 229.022V225.038H898.102V229.022H886.438V262.129H881.947V229.022H870.283ZM936.563 262.708C933.883 262.708 931.571 262.117 929.627 260.934C927.695 259.738 926.204 258.072 925.153 255.935C924.115 253.786 923.596 251.287 923.596 248.437C923.596 245.588 924.115 243.076 925.153 240.903C926.204 238.718 927.665 237.015 929.536 235.796C931.42 234.564 933.617 233.949 936.128 233.949C937.577 233.949 939.008 234.19 940.421 234.673C941.833 235.156 943.119 235.941 944.278 237.027C945.437 238.102 946.361 239.527 947.049 241.301C947.737 243.076 948.082 245.262 948.082 247.858V249.669H926.638V245.974H943.735C943.735 244.404 943.421 243.004 942.793 241.772C942.177 240.541 941.296 239.569 940.149 238.857C939.014 238.144 937.674 237.788 936.128 237.788C934.426 237.788 932.953 238.211 931.709 239.056C930.478 239.889 929.53 240.975 928.866 242.316C928.202 243.656 927.87 245.093 927.87 246.626V249.089C927.87 251.19 928.232 252.971 928.957 254.432C929.693 255.881 930.713 256.985 932.017 257.746C933.321 258.495 934.837 258.869 936.563 258.869C937.686 258.869 938.7 258.712 939.606 258.398C940.523 258.072 941.314 257.589 941.978 256.949C942.642 256.297 943.155 255.488 943.518 254.522L947.647 255.681C947.212 257.082 946.482 258.314 945.455 259.376C944.429 260.426 943.161 261.248 941.652 261.839C940.143 262.419 938.447 262.708 936.563 262.708ZM990.364 262.708C987.757 262.708 985.511 262.093 983.627 260.861C981.744 259.63 980.295 257.933 979.281 255.772C978.266 253.611 977.759 251.142 977.759 248.365C977.759 245.539 978.279 243.046 979.317 240.885C980.367 238.712 981.828 237.015 983.7 235.796C985.583 234.564 987.781 233.949 990.292 233.949C992.248 233.949 994.011 234.311 995.58 235.035C997.15 235.76 998.436 236.774 999.438 238.078C1000.44 239.382 1001.06 240.903 1001.3 242.642H997.029C996.703 241.374 995.979 240.251 994.856 239.273C993.745 238.283 992.248 237.788 990.364 237.788C988.698 237.788 987.237 238.223 985.982 239.092C984.738 239.949 983.766 241.163 983.066 242.732C982.378 244.29 982.034 246.119 982.034 248.22C982.034 250.369 982.372 252.24 983.048 253.834C983.736 255.428 984.702 256.665 985.945 257.547C987.201 258.428 988.674 258.869 990.364 258.869C991.475 258.869 992.483 258.676 993.389 258.289C994.295 257.903 995.061 257.348 995.689 256.623C996.317 255.899 996.764 255.029 997.029 254.015H1001.3C1001.06 255.657 1000.46 257.136 999.51 258.452C998.569 259.756 997.319 260.795 995.761 261.567C994.216 262.328 992.417 262.708 990.364 262.708ZM1036.31 245.395V262.129H1032.03V225.038H1036.31V238.657H1036.67C1037.32 237.221 1038.3 236.08 1039.6 235.234C1040.92 234.377 1042.67 233.949 1044.85 233.949C1046.75 233.949 1048.41 234.329 1049.83 235.089C1051.26 235.838 1052.36 236.991 1053.15 238.549C1053.95 240.094 1054.34 242.062 1054.34 244.453V262.129H1050.07V244.743C1050.07 242.533 1049.5 240.825 1048.35 239.617C1047.21 238.398 1045.64 237.788 1043.62 237.788C1042.22 237.788 1040.97 238.084 1039.86 238.675C1038.76 239.267 1037.89 240.13 1037.25 241.265C1036.62 242.4 1036.31 243.777 1036.31 245.395ZM1135.97 262.636C1133.53 262.636 1131.43 262.189 1129.67 261.296C1127.91 260.402 1126.55 259.177 1125.59 257.619C1124.64 256.062 1124.16 254.281 1124.16 252.277C1124.16 250.731 1124.49 249.361 1125.14 248.165C1125.81 246.958 1126.72 245.841 1127.88 244.815C1129.05 243.777 1130.39 242.738 1131.91 241.7L1137.28 237.716C1138.33 237.027 1139.16 236.291 1139.79 235.506C1140.43 234.721 1140.75 233.695 1140.75 232.427C1140.75 231.485 1140.34 230.574 1139.5 229.692C1138.68 228.811 1137.6 228.37 1136.26 228.37C1135.32 228.37 1134.49 228.612 1133.76 229.095C1133.05 229.566 1132.49 230.169 1132.08 230.906C1131.68 231.63 1131.48 232.379 1131.48 233.152C1131.48 234.021 1131.72 234.902 1132.19 235.796C1132.67 236.677 1133.28 237.583 1134.02 238.512C1134.76 239.43 1135.54 240.372 1136.33 241.338L1153.36 262.129H1148.21L1134.16 245.177C1132.86 243.608 1131.67 242.183 1130.61 240.903C1129.55 239.623 1128.7 238.362 1128.08 237.118C1127.45 235.874 1127.13 234.528 1127.13 233.079C1127.13 231.413 1127.5 229.952 1128.24 228.696C1128.99 227.429 1130.03 226.445 1131.37 225.744C1132.72 225.032 1134.31 224.676 1136.12 224.676C1137.98 224.676 1139.58 225.038 1140.92 225.762C1142.26 226.475 1143.29 227.423 1144.01 228.606C1144.74 229.777 1145.1 231.051 1145.1 232.427C1145.1 234.202 1144.66 235.741 1143.78 237.045C1142.9 238.349 1141.69 239.563 1140.17 240.686L1132.78 246.191C1131.12 247.423 1129.99 248.618 1129.4 249.777C1128.81 250.936 1128.51 251.77 1128.51 252.277C1128.51 253.436 1128.81 254.516 1129.42 255.518C1130.02 256.521 1130.87 257.33 1131.97 257.945C1133.07 258.561 1134.35 258.869 1135.83 258.869C1137.23 258.869 1138.59 258.573 1139.92 257.982C1141.25 257.378 1142.45 256.509 1143.52 255.374C1144.61 254.239 1145.47 252.874 1146.1 251.281C1146.74 249.687 1147.06 247.894 1147.06 245.902H1151.18C1151.18 248.365 1150.9 250.375 1150.33 251.933C1149.77 253.49 1149.13 254.71 1148.41 255.591C1147.7 256.472 1147.13 257.13 1146.69 257.565C1146.55 257.746 1146.42 257.927 1146.29 258.108C1146.17 258.289 1146.04 258.471 1145.9 258.652C1144.7 259.992 1143.19 260.994 1141.37 261.658C1139.55 262.31 1137.75 262.636 1135.97 262.636ZM1226.46 225.038V262.129H1221.97V225.038H1226.46ZM1263.64 245.395V262.129H1259.37V234.311H1263.5V238.657H1263.86C1264.51 237.245 1265.5 236.11 1266.83 235.252C1268.16 234.383 1269.87 233.949 1271.98 233.949C1273.86 233.949 1275.51 234.335 1276.92 235.108C1278.33 235.868 1279.43 237.027 1280.22 238.585C1281 240.13 1281.39 242.086 1281.39 244.453V262.129H1277.12V244.743C1277.12 242.557 1276.55 240.855 1275.42 239.635C1274.28 238.404 1272.72 237.788 1270.74 237.788C1269.38 237.788 1268.16 238.084 1267.09 238.675C1266.02 239.267 1265.18 240.13 1264.57 241.265C1263.95 242.4 1263.64 243.777 1263.64 245.395ZM1317.96 245.395V262.129H1313.68V234.311H1317.81V238.657H1318.17C1318.83 237.245 1319.82 236.11 1321.14 235.252C1322.47 234.383 1324.19 233.949 1326.29 233.949C1328.17 233.949 1329.82 234.335 1331.23 235.108C1332.65 235.868 1333.74 237.027 1334.53 238.585C1335.31 240.13 1335.71 242.086 1335.71 244.453V262.129H1331.43V244.743C1331.43 242.557 1330.86 240.855 1329.73 239.635C1328.59 238.404 1327.04 237.788 1325.06 237.788C1323.69 237.788 1322.47 238.084 1321.4 238.675C1320.34 239.267 1319.5 240.13 1318.88 241.265C1318.27 242.4 1317.96 243.777 1317.96 245.395ZM1379.3 262.708C1376.79 262.708 1374.58 262.111 1372.69 260.915C1370.8 259.72 1369.33 258.048 1368.27 255.899C1367.22 253.75 1366.69 251.238 1366.69 248.365C1366.69 245.467 1367.22 242.937 1368.27 240.776C1369.33 238.615 1370.8 236.937 1372.69 235.741C1374.58 234.546 1376.79 233.949 1379.3 233.949C1381.81 233.949 1384.01 234.546 1385.89 235.741C1387.79 236.937 1389.26 238.615 1390.31 240.776C1391.37 242.937 1391.9 245.467 1391.9 248.365C1391.9 251.238 1391.37 253.75 1390.31 255.899C1389.26 258.048 1387.79 259.72 1385.89 260.915C1384.01 262.111 1381.81 262.708 1379.3 262.708ZM1379.3 258.869C1381.2 258.869 1382.77 258.38 1384.01 257.402C1385.24 256.424 1386.15 255.138 1386.74 253.544C1387.33 251.951 1387.63 250.224 1387.63 248.365C1387.63 246.505 1387.33 244.773 1386.74 243.167C1386.15 241.561 1385.24 240.263 1384.01 239.273C1382.77 238.283 1381.2 237.788 1379.3 237.788C1377.39 237.788 1375.82 238.283 1374.59 239.273C1373.36 240.263 1372.45 241.561 1371.85 243.167C1371.26 244.773 1370.97 246.505 1370.97 248.365C1370.97 250.224 1371.26 251.951 1371.85 253.544C1372.45 255.138 1373.36 256.424 1374.59 257.402C1375.82 258.38 1377.39 258.869 1379.3 258.869ZM1444.66 234.311L1434.37 262.129H1430.02L1419.74 234.311H1424.37L1432.05 256.478H1432.34L1440.02 234.311H1444.66ZM1482.12 262.781C1480.36 262.781 1478.76 262.449 1477.32 261.785C1475.88 261.109 1474.74 260.137 1473.9 258.869C1473.05 257.589 1472.63 256.044 1472.63 254.233C1472.63 252.639 1472.94 251.347 1473.57 250.357C1474.2 249.355 1475.04 248.57 1476.09 248.002C1477.14 247.435 1478.3 247.012 1479.57 246.735C1480.84 246.445 1482.13 246.216 1483.42 246.047C1485.11 245.829 1486.48 245.666 1487.53 245.558C1488.6 245.437 1489.37 245.238 1489.85 244.96C1490.35 244.682 1490.59 244.199 1490.59 243.511V243.366C1490.59 241.579 1490.11 240.191 1489.13 239.201C1488.16 238.211 1486.69 237.716 1484.73 237.716C1482.69 237.716 1481.09 238.162 1479.93 239.056C1478.77 239.949 1477.95 240.903 1477.48 241.917L1473.43 240.468C1474.15 238.778 1475.12 237.462 1476.32 236.52C1477.54 235.566 1478.87 234.902 1480.31 234.528C1481.76 234.142 1483.18 233.949 1484.58 233.949C1485.48 233.949 1486.5 234.057 1487.66 234.275C1488.83 234.48 1489.96 234.908 1491.05 235.56C1492.15 236.212 1493.06 237.196 1493.78 238.512C1494.51 239.828 1494.87 241.591 1494.87 243.801V262.129H1490.59V258.362H1490.38C1490.09 258.966 1489.6 259.612 1488.93 260.3C1488.25 260.988 1487.35 261.574 1486.23 262.056C1485.11 262.539 1483.74 262.781 1482.12 262.781ZM1482.77 258.941C1484.46 258.941 1485.89 258.609 1487.04 257.945C1488.22 257.281 1489.1 256.424 1489.69 255.374C1490.29 254.323 1490.59 253.218 1490.59 252.059V248.147C1490.41 248.365 1490.02 248.564 1489.4 248.745C1488.8 248.914 1488.1 249.065 1487.3 249.198C1486.51 249.319 1485.75 249.427 1485 249.524C1484.26 249.608 1483.66 249.681 1483.21 249.741C1482.09 249.886 1481.06 250.121 1480.09 250.447C1479.14 250.761 1478.36 251.238 1477.77 251.878C1477.19 252.506 1476.9 253.363 1476.9 254.45C1476.9 255.935 1477.45 257.058 1478.55 257.819C1479.66 258.567 1481.07 258.941 1482.77 258.941ZM1539.25 234.311V237.933H1524.83V234.311H1539.25ZM1529.03 227.646H1533.31V254.16C1533.31 255.368 1533.48 256.273 1533.83 256.877C1534.2 257.468 1534.65 257.867 1535.21 258.072C1535.78 258.265 1536.37 258.362 1537 258.362C1537.47 258.362 1537.86 258.338 1538.16 258.289C1538.46 258.229 1538.7 258.181 1538.89 258.145L1539.76 261.984C1539.47 262.093 1539.06 262.201 1538.54 262.31C1538.02 262.431 1537.36 262.491 1536.57 262.491C1535.36 262.491 1534.18 262.232 1533.02 261.712C1531.87 261.193 1530.92 260.402 1530.16 259.34C1529.41 258.277 1529.03 256.937 1529.03 255.319V227.646ZM1570.16 262.129V234.311H1574.43V262.129H1570.16ZM1572.33 229.674C1571.5 229.674 1570.78 229.391 1570.18 228.823C1569.58 228.256 1569.29 227.574 1569.29 226.777C1569.29 225.98 1569.58 225.298 1570.18 224.73C1570.78 224.163 1571.5 223.879 1572.33 223.879C1573.16 223.879 1573.88 224.163 1574.47 224.73C1575.07 225.298 1575.37 225.98 1575.37 226.777C1575.37 227.574 1575.07 228.256 1574.47 228.823C1573.88 229.391 1573.16 229.674 1572.33 229.674ZM1618.04 262.708C1615.53 262.708 1613.33 262.111 1611.43 260.915C1609.55 259.72 1608.07 258.048 1607.01 255.899C1605.96 253.75 1605.44 251.238 1605.44 248.365C1605.44 245.467 1605.96 242.937 1607.01 240.776C1608.07 238.615 1609.55 236.937 1611.43 235.741C1613.33 234.546 1615.53 233.949 1618.04 233.949C1620.55 233.949 1622.75 234.546 1624.63 235.741C1626.53 236.937 1628 238.615 1629.05 240.776C1630.11 242.937 1630.65 245.467 1630.65 248.365C1630.65 251.238 1630.11 253.75 1629.05 255.899C1628 258.048 1626.53 259.72 1624.63 260.915C1622.75 262.111 1620.55 262.708 1618.04 262.708ZM1618.04 258.869C1619.95 258.869 1621.52 258.38 1622.75 257.402C1623.98 256.424 1624.89 255.138 1625.48 253.544C1626.08 251.951 1626.37 250.224 1626.37 248.365C1626.37 246.505 1626.08 244.773 1625.48 243.167C1624.89 241.561 1623.98 240.263 1622.75 239.273C1621.52 238.283 1619.95 237.788 1618.04 237.788C1616.13 237.788 1614.56 238.283 1613.33 239.273C1612.1 240.263 1611.19 241.561 1610.6 243.167C1610.01 244.773 1609.71 246.505 1609.71 248.365C1609.71 250.224 1610.01 251.951 1610.6 253.544C1611.19 255.138 1612.1 256.424 1613.33 257.402C1614.56 258.38 1616.13 258.869 1618.04 258.869ZM1665.92 245.395V262.129H1661.65V234.311H1665.78V238.657H1666.14C1666.79 237.245 1667.78 236.11 1669.11 235.252C1670.44 234.383 1672.15 233.949 1674.26 233.949C1676.14 233.949 1677.79 234.335 1679.2 235.108C1680.61 235.868 1681.71 237.027 1682.5 238.585C1683.28 240.13 1683.67 242.086 1683.67 244.453V262.129H1679.4V244.743C1679.4 242.557 1678.83 240.855 1677.7 239.635C1676.56 238.404 1675 237.788 1673.02 237.788C1671.66 237.788 1670.44 238.084 1669.37 238.675C1668.3 239.267 1667.46 240.13 1666.85 241.265C1666.23 242.4 1665.92 243.777 1665.92 245.395Z" fill="#344967"/>
<path d="M717.26 1.82812V267.998" stroke="#666666" stroke-width="3" stroke-miterlimit="10"/>
<path d="M537.21 108.37L631.76 0H526.85L433.09 112.57V0.05H432.9V157.35C432.9 193.35 421.567 220.787 398.9 239.66C385.46 250.873 368.684 258.75 348.57 263.29V263.43H433.17V204.43L479 167L533.76 263.47L633.68 263.42L537.21 108.37Z" fill="#344967"/>
<path d="M432.86 0H348.26V156.23C348.26 170.75 344.26 182.51 336.26 191.43C328.26 200.35 316.64 204.83 301.6 204.83C286.56 204.83 275.04 200.44 267.15 191.62C259.26 182.8 255.29 171.02 255.29 156.23V73.3H170.69V157.35C170.69 193.35 182.114 220.787 204.96 239.66C227.807 258.533 260.14 267.98 301.96 268C317.603 268.148 333.214 266.569 348.51 263.29L348.44 0.05H432.86V0Z" fill="#D34D5C"/>
<path d="M432.88 0V157.37C432.88 193.37 421.524 220.807 398.81 239.68C385.377 250.84 368.604 258.703 348.49 263.27L348.45 0H432.88Z" fill="#E6E6E6"/>
<path d="M255.49 0.02V73.3H170.44V263.42H85.8403V67.42H-0.679688V0H171.66V0.02H255.49Z" fill="#D0D0D0"/>
</g>
<defs>
<clipPath id="clip0_193_260">
<rect width="1744" height="268" fill="white"/>
</clipPath>
</defs>
</svg>
