<svg width="84" height="96" viewBox="0 0 84 96" fill="none" xmlns="http://www.w3.org/2000/svg">
<g filter="url(#filter0_d_961_198)">
<g clip-path="url(#clip0_961_198)">
<path d="M74.3544 16.4223C77.61 17.0188 77.9584 17.4395 77.9584 20.5598C77.9584 35.2707 77.9584 49.9874 77.9584 64.7098C77.9584 67.8542 77.2686 68.5231 74.113 68.5231H7.7212C4.71044 68.5162 4 67.806 4 64.7408C4 49.9655 4 35.1925 4 20.4219C4 17.2705 4.65181 16.6292 7.86604 16.6292C24.6499 16.6292 41.4338 16.6396 58.2177 16.6602C59.5386 16.6602 60.287 16.2637 60.9767 15.1535C63.5047 11.1126 66.1326 7.13377 68.7467 3.14804C70.9022 -0.144681 74.0958 -0.903213 77.172 1.10345C80.2483 3.11011 80.8415 6.34421 78.7378 9.63003C77.3341 11.8505 75.8925 14.0571 74.3544 16.4223ZM72.6749 63.2686V22.0079C71.423 21.5562 70.6815 21.9424 70.0435 23.0043C68.7088 25.2179 67.2155 27.3314 65.8636 29.5346C65.5146 30.0995 65.3361 30.7532 65.3497 31.4171C65.5429 34.7029 64.5738 37.6578 61.87 39.4334C57.1969 42.5055 52.4307 45.481 46.3816 45.1845C41.5534 44.9431 36.7251 45.1535 31.8969 45.1155C30.345 45.1155 29.3207 44.1053 29.2345 42.7399C29.1414 41.2953 30.1415 40.1713 31.7279 39.9816C32.1867 39.9429 32.6475 39.9337 33.1074 39.9541C37.3057 39.9541 41.5028 39.9541 45.6988 39.9541C46.2989 39.9541 46.9024 39.9023 47.4507 39.8748C47.6025 37.3613 47.6508 35.0477 47.9025 32.779C48.3474 28.7485 50.3167 25.8385 54.2206 24.28C55.107 23.9352 55.7691 23.0009 56.5347 22.3389L56.2485 21.9734H9.31452V63.2686H72.6749ZM52.5825 38.7439C54.6345 37.6854 56.2933 36.951 57.8315 36.0131C60.7595 34.2306 60.7629 32.1446 57.9349 30.3069C55.6898 28.845 53.9965 29.3967 53.355 32.0826C52.8756 34.0892 52.8584 36.2028 52.5825 38.7439ZM61.6354 26.4556C65.9395 19.8357 70.1952 13.302 74.3958 6.74072C74.582 6.4511 74.3613 5.89254 74.3303 5.46156C73.9164 5.6305 73.3301 5.67877 73.1198 5.98908C71.6333 8.16469 70.2228 10.3989 68.7847 12.6124L60.3387 25.6316L61.6354 26.4556Z" fill="#0C1A2C"/>
<path d="M41.1508 71.5992H74.4312C77.1419 71.5992 77.9524 72.3853 77.9593 75.0471C77.9731 78.2651 77.9731 81.4831 77.9593 84.7011C77.9593 87.1146 77.1316 87.9938 74.7899 87.9938C52.2581 88.0122 29.7263 88.0122 7.19445 87.9938C4.84931 87.9938 4.01816 87.0974 4.00781 84.7183C4.00781 81.3842 4.00781 78.0502 4.00781 74.7195C4.00781 72.5025 4.92518 71.6164 7.17376 71.6164C18.5017 71.6003 29.8274 71.5946 41.1508 71.5992ZM72.6723 76.8882H9.29819V82.6944H72.6723V76.8882Z" fill="#0C1A2C"/>
</g>
</g>
<defs>
<filter id="filter0_d_961_198" x="0" y="0" width="84" height="96" filterUnits="userSpaceOnUse" color-interpolation-filters="sRGB">
<feFlood flood-opacity="0" result="BackgroundImageFix"/>
<feColorMatrix in="SourceAlpha" type="matrix" values="0 0 0 0 0 0 0 0 0 0 0 0 0 0 0 0 0 0 127 0" result="hardAlpha"/>
<feOffset dy="4"/>
<feGaussianBlur stdDeviation="2"/>
<feComposite in2="hardAlpha" operator="out"/>
<feColorMatrix type="matrix" values="0 0 0 0 0 0 0 0 0 0 0 0 0 0 0 0 0 0 0.25 0"/>
<feBlend mode="normal" in2="BackgroundImageFix" result="effect1_dropShadow_961_198"/>
<feBlend mode="normal" in="SourceGraphic" in2="effect1_dropShadow_961_198" result="shape"/>
</filter>
<clipPath id="clip0_961_198">
<rect width="76" height="88" fill="white" transform="translate(4)"/>
</clipPath>
</defs>
</svg>
