<svg width="83" height="96" viewBox="0 0 83 96" fill="none" xmlns="http://www.w3.org/2000/svg">
<g filter="url(#filter0_d_961_188)">
<path d="M78.9232 29.3556C79.1974 36.058 78.8035 44.1701 76.1425 52.0172C70.5298 68.5768 59.6814 80.4069 43.5975 87.5076C42.957 87.8277 42.2508 87.9963 41.534 88.0003C40.8172 88.0043 40.1092 87.8435 39.4651 87.5306C18.8421 78.1011 6.90078 62.2533 4.47158 39.7953C3.66443 32.3592 4.15104 24.781 4.09311 17.2835C4.09311 15.7471 4.95433 14.6947 6.35624 14.1147C17.5792 9.45945 28.8022 4.80806 40.0599 0.248852C41.0245 -0.0919567 42.0793 -0.0824328 43.0375 0.275739C54.2373 4.81574 65.41 9.44793 76.5828 14.0647C78.1933 14.7331 78.9463 15.9852 78.9348 17.7175C78.9232 21.1014 78.9232 24.4891 78.9232 29.3556ZM11.3112 19.5266C11.3112 26.4403 10.7087 33.0813 11.4232 39.5994C13.4816 58.3932 23.4726 71.9133 40.4268 80.3634C40.7502 80.5057 41.0989 80.582 41.4525 80.588C41.806 80.5939 42.1572 80.5293 42.4852 80.398C58.3967 72.6469 68.2988 60.1177 71.1219 42.7566C72.3114 35.4588 71.763 27.8883 71.9407 20.4407C71.9407 20.0566 71.427 19.4536 71.0099 19.2884C61.4451 15.2887 51.8634 11.3313 42.2651 7.41606C41.7414 7.23567 41.17 7.24794 40.6546 7.45063C30.7988 11.4798 20.9546 15.5512 11.3112 19.5266Z" fill="#1F3046"/>
<path d="M37.7199 46.1719C38.8553 44.9505 39.7629 43.9211 40.7323 42.9493C44.566 39.1238 48.4022 35.3059 52.241 31.4956C53.9287 29.8325 55.9988 29.7403 57.4547 31.1845C58.9107 32.6287 58.8373 34.6798 57.1535 36.366C51.5845 41.9507 45.991 47.5137 40.3731 53.0549C38.5734 54.8294 36.739 54.7948 34.9123 53.0088C31.869 50.0282 28.8489 47.0246 25.852 43.9979C24.172 42.3041 24.0755 40.2799 25.5392 38.8203C27.0029 37.3608 29.0382 37.4337 30.7452 39.1161C32.9967 41.3361 35.1942 43.6138 37.7199 46.1719Z" fill="#1F3046"/>
</g>
<defs>
<filter id="filter0_d_961_188" x="0" y="0" width="82.9961" height="96" filterUnits="userSpaceOnUse" color-interpolation-filters="sRGB">
<feFlood flood-opacity="0" result="BackgroundImageFix"/>
<feColorMatrix in="SourceAlpha" type="matrix" values="0 0 0 0 0 0 0 0 0 0 0 0 0 0 0 0 0 0 127 0" result="hardAlpha"/>
<feOffset dy="4"/>
<feGaussianBlur stdDeviation="2"/>
<feComposite in2="hardAlpha" operator="out"/>
<feColorMatrix type="matrix" values="0 0 0 0 0 0 0 0 0 0 0 0 0 0 0 0 0 0 0.25 0"/>
<feBlend mode="normal" in2="BackgroundImageFix" result="effect1_dropShadow_961_188"/>
<feBlend mode="normal" in="SourceGraphic" in2="effect1_dropShadow_961_188" result="shape"/>
</filter>
</defs>
</svg>
