<svg width="170" height="170" viewBox="0 0 170 170" fill="none" xmlns="http://www.w3.org/2000/svg">
<g clip-path="url(#clip0_172_1204)">
<path d="M124.453 101.835C122.759 100.994 111.753 95.9437 110.059 95.1021C108.366 94.2604 106.672 94.2604 104.979 95.9437C103.286 97.6271 99.899 102.677 98.2057 104.36C97.359 106.044 95.6657 106.044 93.9723 105.202C88.0456 102.677 82.1188 99.3104 77.0388 95.1021C72.8054 90.8937 68.572 85.8438 65.1853 80.7937C64.3386 79.1104 65.1853 77.4271 66.032 76.5854C66.8787 75.7438 67.7253 74.0604 69.4187 73.2188C70.2654 72.3771 71.112 70.6937 71.112 69.8521C71.9587 69.0104 71.9587 67.3271 71.112 66.4854C70.2654 65.6438 66.032 55.5438 64.3386 51.3354C63.492 45.4438 61.7986 45.4438 60.1052 45.4438H55.8719C54.1785 45.4438 51.6385 47.1271 50.7918 47.9688C45.7117 53.0188 43.1717 58.9104 43.1717 65.6438C44.0184 73.2188 46.5584 80.7938 51.6385 87.5271C60.9519 100.994 72.8054 111.935 87.1989 118.669C91.4323 120.352 94.819 122.035 99.0524 122.877C103.286 124.56 107.519 124.56 112.599 123.719C118.526 122.877 123.606 118.669 126.993 113.619C128.686 110.252 128.686 106.885 127.839 103.519L124.453 101.835ZM145.62 25.2438C112.599 -7.58125 59.2586 -7.58125 26.2382 25.2438C-0.855463 52.1771 -5.93552 93.4187 12.6914 126.244L0.837891 169.169L45.7118 157.385C58.4119 164.119 71.9587 167.485 85.5055 167.485C132.073 167.485 169.327 130.452 169.327 84.1604C170.173 62.2771 160.86 41.2354 145.62 25.2438ZM122.759 143.077C111.753 149.81 99.0524 154.019 85.5055 154.019C72.8054 154.019 60.9519 150.652 49.9451 144.76L47.4051 143.077L21.1581 149.81L27.9315 124.56L26.2382 122.035C5.91795 88.3687 16.0781 46.2854 49.0985 25.2438C82.1188 4.20209 124.453 15.1438 144.773 47.1271C165.093 79.9521 155.78 122.877 122.759 143.077Z" />
</g>
<defs>
<clipPath id="clip0_172_1204">
<rect width="170" height="170" fill="white"/>
</clipPath>
</defs>
</svg>
